<?xml version="1.0" encoding="utf-8"?>
<!-- Generator: Adobe Illustrator 18.1.1, SVG Export Plug-In . SVG Version: 6.00 Build 0)  -->
<svg version="1.1" xmlns="http://www.w3.org/2000/svg" xmlns:xlink="http://www.w3.org/1999/xlink" x="0px" y="0px"
	 viewBox="0 0 40 40" enable-background="new 0 0 40 40" xml:space="preserve">
<g id="Layer_1" display="none">
	<rect x="-0.005" y="-0.003" display="inline" fill="#ACDAC5" width="39.999" height="39.999"/>
</g>
<g id="Layer_2" display="none">
	<path display="inline" d="M24.125,8.981c1.844,1.156,3.137,3.112,3.373,5.383c0.752,0.352,1.586,0.554,2.471,0.554
		c3.23,0,5.848-2.618,5.848-5.848c0-3.231-2.617-5.848-5.848-5.848C26.77,3.224,24.174,5.794,24.125,8.981z M20.295,20.954
		c3.228,0,5.846-2.617,5.846-5.847S23.523,9.26,20.295,9.26c-3.23,0-5.85,2.619-5.85,5.848
		C14.445,18.337,17.065,20.954,20.295,20.954z M22.775,21.354h-4.963c-4.129,0-7.487,3.358-7.487,7.488v6.068l0.015,0.094
		l0.417,0.132c3.941,1.23,7.364,1.642,10.181,1.642c5.504,0,8.691-1.569,8.891-1.669l0.391-0.198h0.041v-6.068
		C30.262,24.713,26.902,21.354,22.775,21.354z M32.449,15.317h-4.924c-0.053,1.969-0.895,3.743-2.225,5.018
		c3.67,1.092,6.355,4.495,6.355,8.515v1.87c4.861-0.178,7.664-1.556,7.85-1.648l0.389-0.199h0.043v-6.069
		C39.938,18.676,36.578,15.317,32.449,15.317z M10.033,14.918c1.144,0,2.208-0.334,3.11-0.901c0.286-1.87,1.288-3.504,2.721-4.617
		c0.005-0.109,0.017-0.218,0.017-0.328c0-3.229-2.619-5.848-5.848-5.848c-3.23,0-5.848,2.618-5.848,5.848
		C4.185,12.3,6.803,14.918,10.033,14.918z M15.285,20.336c-1.324-1.268-2.162-3.033-2.223-4.991
		c-0.182-0.013-0.364-0.027-0.549-0.027H7.551c-4.128,0-7.487,3.358-7.487,7.486v6.069l0.015,0.096l0.418,0.129
		c3.161,0.989,5.982,1.444,8.433,1.586v-1.833C8.93,24.831,11.613,21.43,15.285,20.336z"/>
</g>
<g id="Layer_3" display="none">
	<path display="inline" d="M1.876,6.54c0.315-0.117,0.651-0.19,1.008-0.19h34.272c0.356,0,0.693,0.073,1.007,0.19L22.809,21.004
		c-1.562,1.475-4.013,1.475-5.577,0L1.876,6.54z M39.633,32.244c0.267-0.438,0.428-0.947,0.428-1.498V9.253
		c0-0.391-0.08-0.761-0.22-1.101L25.471,21.69L39.633,32.244z M24.172,22.895c-1.192,1.02-2.67,1.539-4.153,1.539
		c-1.48,0-2.958-0.518-4.15-1.539L1.748,33.42c0.35,0.148,0.733,0.23,1.136,0.23h34.272c0.403,0,0.787-0.082,1.138-0.23
		L24.172,22.895z M0.2,8.152c-0.14,0.34-0.22,0.711-0.22,1.101v21.493c0,0.551,0.162,1.061,0.428,1.498L14.568,21.69L0.2,8.152z"/>
</g>
<g id="Layer_4" display="none">
	<path display="inline" d="M12.492,20.047H7.502v-4.988h4.989V20.047z M22.468,15.059H17.48v4.988h4.987V15.059z M32.445,15.059
		h-4.988v4.988h4.988V15.059z M12.492,22.541H7.502v4.989h4.989V22.541z M22.468,22.541H17.48v4.989h4.987V22.541z M32.445,22.541
		h-4.988v4.989h4.988V22.541z M12.492,30.024H7.502v4.987h4.989V30.024z M22.468,30.024H17.48v4.987h4.987V30.024z M9.997,7.576
		c1.377,0,2.495-1.115,2.495-2.494V2.588c0-1.379-1.117-2.495-2.495-2.495c-1.378,0-2.495,1.115-2.495,2.495v2.494
		C7.502,6.461,8.619,7.576,9.997,7.576z M39.928,5.082v34.919H0.02V5.082h6.235c0,2.062,1.678,3.741,3.742,3.741
		c2.063,0,3.741-1.679,3.741-3.741h12.471c0,2.062,1.68,3.741,3.741,3.741c2.063,0,3.742-1.679,3.742-3.741H39.928z M37.435,12.565
		H2.515v24.943h34.92V12.565z M29.95,7.576c1.379,0,2.495-1.115,2.495-2.494V2.588c0-1.379-1.116-2.495-2.495-2.495
		c-1.378,0-2.493,1.115-2.493,2.495v2.494C27.457,6.461,28.572,7.576,29.95,7.576z"/>
</g>
<g id="Layer_5" display="none">
	<path display="inline" d="M37.514,37.514V15.005H20.007V0H2.501v37.514H0v2.501h40.015v-2.501H37.514z M5.002,2.501h5.002v5.001
		H5.002V2.501z M5.002,10.004h5.002v5.002H5.002V10.004z M5.002,17.507h5.002v5.001H5.002V17.507z M5.002,25.01h5.002v5.002H5.002
		V25.01z M15.005,37.514H7.502v-5.002h7.503V37.514z M17.507,30.012h-5.002V25.01h5.002V30.012z M17.507,22.508h-5.002v-5.001h5.002
		V22.508z M17.507,15.005h-5.002v-5.002h5.002V15.005z M17.507,7.502h-5.002V2.501h5.002V7.502z M22.508,17.507h5.002v5.001h-5.002
		V17.507z M22.508,25.01h5.002v5.002h-5.002V25.01z M32.512,37.514H25.01v-5.002h7.502V37.514z M35.013,30.012h-5.001V25.01h5.001
		V30.012z M35.013,22.508h-5.001v-5.001h5.001V22.508z"/>
</g>
<g id="Layer_6" display="none">
	<g display="inline">
		<path d="M31.306,29.453c-5.237-1.911-6.912-3.521-6.912-6.969c0-2.069,1.6-1.395,2.303-5.186c0.29-1.571,1.703-0.026,1.975-3.614
			c0-1.432-0.771-1.788-0.771-1.788s0.392-2.116,0.545-3.746c0.191-2.03-1.173-7.275-8.443-7.275c-7.271,0-8.634,5.246-8.443,7.275
			c0.153,1.63,0.545,3.746,0.545,3.746s-0.771,0.356-0.771,1.788c0.271,3.588,1.682,2.043,1.975,3.614
			c0.703,3.791,2.303,3.116,2.303,5.186c0,3.448-1.675,5.058-6.912,6.969c-5.256,1.913-8.671,3.866-8.671,5.196
			c0,1.331,0,4.476,0,4.476h19.976h19.975c0,0,0-3.145,0-4.476C39.976,33.319,36.562,31.366,31.306,29.453z"/>
	</g>
</g>
<g id="Layer_13">
	<circle fill="#231F20" cx="5.006" cy="20.009" r="5.006"/>
	<circle fill="#231F20" cx="20.006" cy="20.009" r="5.006"/>
	<circle fill="#231F20" cx="34.994" cy="20.009" r="5.006"/>
</g>
</svg>
