<?xml version="1.0" encoding="utf-8"?>
<!-- Generator: Adobe Illustrator 13.0.0, SVG Export Plug-In . SVG Version: 6.00 Build 14948)  -->
<!DOCTYPE svg PUBLIC "-//W3C//DTD SVG 1.1//EN" "http://www.w3.org/Graphics/SVG/1.1/DTD/svg11.dtd">
<svg version="1.1" id="Layer_4" xmlns="http://www.w3.org/2000/svg" xmlns:xlink="http://www.w3.org/1999/xlink" x="0px" y="0px"
	 width="39.908px" height="39.908px" viewBox="0 0 39.908 39.908" enable-background="new 0 0 39.908 39.908" xml:space="preserve">
<path d="M12.472,19.954H7.482v-4.988h4.989V19.954z M22.448,14.965H17.46v4.988h4.987V14.965z M32.425,14.965h-4.988v4.988h4.988
	V14.965z M12.472,22.448H7.482v4.989h4.989V22.448z M22.448,22.448H17.46v4.989h4.987V22.448z M32.425,22.448h-4.988v4.989h4.988
	V22.448z M12.472,29.931H7.482v4.987h4.989V29.931z M22.448,29.931H17.46v4.987h4.987V29.931z M9.977,7.482
	c1.377,0,2.495-1.115,2.495-2.494V2.495C12.472,1.115,11.354,0,9.977,0C8.599,0,7.482,1.115,7.482,2.495v2.494
	C7.482,6.368,8.599,7.482,9.977,7.482z M39.908,4.989v34.919H0V4.989h6.235c0,2.062,1.678,3.741,3.742,3.741
	c2.063,0,3.741-1.679,3.741-3.741h12.471c0,2.062,1.68,3.741,3.741,3.741c2.063,0,3.742-1.679,3.742-3.741H39.908z M37.415,12.472
	H2.495v24.943h34.92V12.472z M29.93,7.482c1.379,0,2.495-1.115,2.495-2.494V2.495C32.425,1.115,31.309,0,29.93,0
	c-1.378,0-2.493,1.115-2.493,2.495v2.494C27.437,6.368,28.552,7.482,29.93,7.482z"/>
</svg>
