<?xml version="1.0" encoding="utf-8"?>
<!-- Generator: Adobe Illustrator 16.0.5, SVG Export Plug-In . SVG Version: 6.00 Build 0)  -->
<!DOCTYPE svg PUBLIC "-//W3C//DTD SVG 1.1//EN" "http://www.w3.org/Graphics/SVG/1.1/DTD/svg11.dtd">
<svg version="1.1" id="Layer_2" xmlns="http://www.w3.org/2000/svg" xmlns:xlink="http://www.w3.org/1999/xlink" x="0px" y="0px"
	 width="39.875px" height="33.557px" viewBox="0 0 39.875 33.557" enable-background="new 0 0 39.875 33.557" xml:space="preserve">
<path fill="#FFFFFF" d="M24.061,5.759c1.844,1.156,3.138,3.112,3.373,5.384c0.752,0.352,1.586,0.554,2.471,0.554
	c3.229,0,5.849-2.618,5.849-5.848c0-3.23-2.617-5.849-5.849-5.849C26.707,0.001,24.11,2.571,24.061,5.759z M20.231,17.731
	c3.229,0,5.847-2.617,5.847-5.848c0-3.229-2.617-5.848-5.847-5.848c-3.23,0-5.85,2.619-5.85,5.848
	C14.381,15.114,17,17.731,20.231,17.731z M22.71,18.132h-4.962c-4.129,0-7.487,3.358-7.487,7.488v6.068l0.015,0.094l0.417,0.132
	c3.941,1.23,7.364,1.643,10.182,1.643c5.504,0,8.69-1.569,8.891-1.669l0.391-0.198h0.041V25.62
	C30.199,21.49,26.837,18.132,22.71,18.132z M32.384,12.094H27.46c-0.053,1.97-0.895,3.743-2.225,5.02
	c3.67,1.092,6.355,4.495,6.355,8.515v1.87c4.861-0.178,7.664-1.556,7.85-1.647l0.389-0.199h0.043v-6.069
	C39.875,15.453,36.514,12.094,32.384,12.094z M9.969,11.695c1.144,0,2.208-0.334,3.11-0.901c0.286-1.87,1.288-3.504,2.721-4.617
	c0.005-0.108,0.017-0.218,0.017-0.327c0-3.229-2.619-5.849-5.848-5.849c-3.23,0-5.848,2.618-5.848,5.849
	C4.121,9.077,6.739,11.695,9.969,11.695z M15.221,17.113c-1.324-1.27-2.162-3.033-2.223-4.991c-0.182-0.013-0.364-0.027-0.549-0.027
	H7.487C3.358,12.094,0,15.453,0,19.581v6.069l0.015,0.096l0.418,0.129c3.161,0.989,5.982,1.444,8.433,1.586v-1.833
	C8.866,21.608,11.549,18.207,15.221,17.113z"/>
</svg>
