<?xml version="1.0" encoding="utf-8"?>
<!-- Generator: Adobe Illustrator 13.0.0, SVG Export Plug-In . SVG Version: 6.00 Build 14948)  -->
<!DOCTYPE svg PUBLIC "-//W3C//DTD SVG 1.1//EN" "http://www.w3.org/Graphics/SVG/1.1/DTD/svg11.dtd">
<svg version="1.1" id="Layer_2" xmlns="http://www.w3.org/2000/svg" xmlns:xlink="http://www.w3.org/1999/xlink" x="0px" y="0px"
	 width="39.874px" height="33.556px" viewBox="0 0 39.874 33.556" enable-background="new 0 0 39.874 33.556" xml:space="preserve">
<path d="M24.061,5.759c1.844,1.156,3.137,3.112,3.373,5.383c0.752,0.352,1.586,0.554,2.471,0.554c3.23,0,5.848-2.618,5.848-5.848
	c0-3.23-2.617-5.848-5.848-5.848C26.706,0.001,24.11,2.571,24.061,5.759z M20.231,17.731c3.229,0,5.846-2.617,5.846-5.847
	s-2.617-5.848-5.846-5.848c-3.23,0-5.85,2.619-5.85,5.848C14.381,15.114,17,17.731,20.231,17.731z M22.711,18.132h-4.963
	c-4.129,0-7.487,3.358-7.487,7.488v6.068l0.015,0.094l0.417,0.132c3.941,1.23,7.364,1.642,10.181,1.642
	c5.504,0,8.691-1.569,8.891-1.669l0.391-0.198h0.041V25.62C30.198,21.49,26.838,18.132,22.711,18.132z M32.385,12.095h-4.924
	c-0.053,1.969-0.895,3.743-2.225,5.019c3.67,1.092,6.355,4.495,6.355,8.515v1.87c4.861-0.178,7.664-1.556,7.85-1.648l0.389-0.199
	h0.043v-6.069C39.874,15.453,36.514,12.095,32.385,12.095z M9.969,11.695c1.144,0,2.208-0.334,3.11-0.901
	c0.286-1.87,1.288-3.504,2.721-4.617c0.005-0.109,0.017-0.218,0.017-0.328c0-3.229-2.619-5.848-5.848-5.848
	c-3.23,0-5.848,2.618-5.848,5.848C4.121,9.077,6.739,11.695,9.969,11.695z M15.221,17.113c-1.324-1.269-2.162-3.033-2.223-4.991
	c-0.182-0.013-0.364-0.027-0.549-0.027H7.487C3.358,12.095,0,15.453,0,19.581v6.069l0.015,0.096l0.418,0.129
	c3.161,0.989,5.982,1.444,8.433,1.586v-1.833C8.866,21.608,11.549,18.207,15.221,17.113z"/>
</svg>
