<?xml version="1.0" encoding="utf-8"?>
<!-- Generator: Adobe Illustrator 13.0.0, SVG Export Plug-In . SVG Version: 6.00 Build 14948)  -->
<!DOCTYPE svg PUBLIC "-//W3C//DTD SVG 1.1//EN" "http://www.w3.org/Graphics/SVG/1.1/DTD/svg11.dtd">
<svg version="1.1" id="Layer_3" xmlns="http://www.w3.org/2000/svg" xmlns:xlink="http://www.w3.org/1999/xlink" x="0px" y="0px"
	 width="40.081px" height="27.301px" viewBox="0 0 40.081 27.301" enable-background="new 0 0 40.081 27.301" xml:space="preserve">
<path d="M1.896,0.19C2.211,0.073,2.548,0,2.904,0h34.272c0.356,0,0.693,0.073,1.007,0.19L22.829,14.655
	c-1.562,1.475-4.013,1.475-5.577,0L1.896,0.19z M39.653,25.895c0.267-0.438,0.428-0.947,0.428-1.498V2.904
	c0-0.391-0.08-0.761-0.22-1.102L25.491,15.34L39.653,25.895z M24.192,16.545c-1.192,1.02-2.67,1.539-4.153,1.539
	c-1.48,0-2.958-0.518-4.15-1.539L1.768,27.071c0.35,0.148,0.733,0.23,1.136,0.23h34.272c0.403,0,0.787-0.082,1.138-0.23
	L24.192,16.545z M0.22,1.803C0.08,2.143,0,2.514,0,2.904v21.493c0,0.551,0.162,1.061,0.428,1.498L14.588,15.34L0.22,1.803z"/>
</svg>
