<?xml version="1.0" encoding="utf-8"?>
<!-- Generator: Adobe Illustrator 13.0.0, SVG Export Plug-In . SVG Version: 6.00 Build 14948)  -->
<!DOCTYPE svg PUBLIC "-//W3C//DTD SVG 1.1//EN" "http://www.w3.org/Graphics/SVG/1.1/DTD/svg11.dtd">
<svg version="1.1" id="Layer_5" xmlns="http://www.w3.org/2000/svg" xmlns:xlink="http://www.w3.org/1999/xlink" x="0px" y="0px"
	 width="40.015px" height="40.015px" viewBox="0 0 40.015 40.015" enable-background="new 0 0 40.015 40.015" xml:space="preserve">
<path d="M37.514,37.514V15.005H20.007V0H2.501v37.514H0v2.501h40.015v-2.501H37.514z M5.002,2.501h5.002v5.001H5.002V2.501z
	 M5.002,10.004h5.002v5.001H5.002V10.004z M5.002,17.507h5.002v5.001H5.002V17.507z M5.002,25.01h5.002v5.002H5.002V25.01z
	 M15.005,37.514H7.502v-5.002h7.503V37.514z M17.507,30.012h-5.002V25.01h5.002V30.012z M17.507,22.508h-5.002v-5.001h5.002V22.508z
	 M17.507,15.005h-5.002v-5.001h5.002V15.005z M17.507,7.502h-5.002V2.501h5.002V7.502z M22.508,17.507h5.002v5.001h-5.002V17.507z
	 M22.508,25.01h5.002v5.002h-5.002V25.01z M32.512,37.514H25.01v-5.002h7.502V37.514z M35.013,30.012h-5.001V25.01h5.001V30.012z
	 M35.013,22.508h-5.001v-5.001h5.001V22.508z"/>
</svg>
