<?xml version="1.0" encoding="utf-8"?>
<!-- Generator: Adobe Illustrator 13.0.0, SVG Export Plug-In . SVG Version: 6.00 Build 14948)  -->
<!DOCTYPE svg PUBLIC "-//W3C//DTD SVG 1.1//EN" "http://www.w3.org/Graphics/SVG/1.1/DTD/svg11.dtd">
<svg version="1.1" id="Layer_7" xmlns="http://www.w3.org/2000/svg" xmlns:xlink="http://www.w3.org/1999/xlink" x="0px" y="0px"
	 width="39.979px" height="39.953px" viewBox="0 0 39.979 39.953" enable-background="new 0 0 39.979 39.953" xml:space="preserve">
<path d="M39.96,31.531c0.086,0.648-0.113,1.213-0.593,1.693l-5.629,5.586c-0.255,0.281-0.585,0.521-0.994,0.719
	c-0.41,0.199-0.811,0.326-1.206,0.381c-0.027,0-0.113,0.008-0.254,0.021c-0.142,0.014-0.324,0.021-0.551,0.021
	c-0.535,0-1.403-0.092-2.604-0.275c-1.198-0.184-2.665-0.635-4.4-1.354c-1.735-0.721-3.703-1.799-5.904-3.238
	c-2.201-1.438-4.543-3.414-7.026-5.926c-1.975-1.947-3.612-3.809-4.91-5.586c-1.298-1.777-2.341-3.421-3.131-4.93
	c-0.791-1.51-1.383-2.878-1.779-4.106c-0.394-1.227-0.663-2.285-0.804-3.173c-0.141-0.889-0.196-1.587-0.169-2.095
	C0.035,8.761,0.05,8.479,0.05,8.422c0.056-0.396,0.183-0.797,0.381-1.206c0.197-0.41,0.437-0.741,0.719-0.995l5.629-5.629
	C7.173,0.197,7.625,0,8.133,0C8.5,0,8.825,0.106,9.107,0.317C9.389,0.529,9.628,0.79,9.827,1.1l4.528,8.592
	c0.254,0.452,0.324,0.945,0.211,1.481c-0.111,0.536-0.352,0.988-0.718,1.354l-2.074,2.074c-0.057,0.057-0.106,0.148-0.148,0.275
	c-0.043,0.127-0.063,0.232-0.063,0.317c0.112,0.592,0.367,1.27,0.761,2.032c0.338,0.676,0.86,1.502,1.567,2.475
	c0.705,0.974,1.707,2.095,3.004,3.365c1.27,1.297,2.399,2.307,3.387,3.025c0.986,0.721,1.812,1.25,2.477,1.588
	c0.662,0.34,1.17,0.543,1.523,0.613l0.527,0.105c0.058,0,0.147-0.021,0.275-0.062c0.127-0.043,0.22-0.092,0.275-0.148l2.413-2.455
	c0.507-0.451,1.1-0.678,1.777-0.678c0.481,0,0.86,0.086,1.143,0.256h0.042l8.169,4.822C39.495,30.501,39.847,30.966,39.96,31.531z"
	/>
</svg>
