<?xml version="1.0" encoding="utf-8"?>
<!-- Generator: Adobe Illustrator 13.0.0, SVG Export Plug-In . SVG Version: 6.00 Build 14948)  -->
<!DOCTYPE svg PUBLIC "-//W3C//DTD SVG 1.1//EN" "http://www.w3.org/Graphics/SVG/1.1/DTD/svg11.dtd">
<svg version="1.1" id="Layer_8" xmlns="http://www.w3.org/2000/svg" xmlns:xlink="http://www.w3.org/1999/xlink" x="0px" y="0px"
	 width="39.916px" height="39.917px" viewBox="0 0 39.916 39.917" enable-background="new 0 0 39.916 39.917" xml:space="preserve">
<g id="search_2_">
	<path d="M28.513,25.091h-1.825l-0.685-0.684c2.28-2.511,3.648-5.932,3.648-9.582C29.651,6.615,23.039,0,14.826,0
		C6.614,0,0,6.615,0,14.826c0,8.212,6.614,14.826,14.826,14.826c3.65,0,7.072-1.369,9.582-3.649l0.685,0.686v1.824l11.402,11.404
		l3.422-3.422L28.513,25.091z M14.826,25.091c-5.702,0-10.264-4.563-10.264-10.265S9.124,4.562,14.826,4.562
		c5.703,0,10.266,4.562,10.266,10.264S20.529,25.091,14.826,25.091z"/>
</g>
</svg>
