<?xml version="1.0" encoding="utf-8"?>
<!-- Generator: Adobe Illustrator 13.0.0, SVG Export Plug-In . SVG Version: 6.00 Build 14948)  -->
<!DOCTYPE svg PUBLIC "-//W3C//DTD SVG 1.1//EN" "http://www.w3.org/Graphics/SVG/1.1/DTD/svg11.dtd">
<svg version="1.1" id="Layer_10" xmlns="http://www.w3.org/2000/svg" xmlns:xlink="http://www.w3.org/1999/xlink" x="0px" y="0px"
	 width="40.009px" height="40.009px" viewBox="0 0 40.009 40.009" enable-background="new 0 0 40.009 40.009" xml:space="preserve">
<g>
	<path fill="#009B4F" d="M20.004,0C8.974,0,0,8.974,0,20.003c0,11.033,8.974,20.005,20.004,20.005
		c11.031,0,20.005-8.973,20.005-20.005C40.009,8.974,31.036,0,20.004,0z M20.004,35.753c-8.684,0-15.749-7.063-15.749-15.75
		c0-8.683,7.064-15.747,15.749-15.747c8.684,0,15.749,7.064,15.749,15.747C35.753,28.689,28.688,35.753,20.004,35.753z"/>
</g>
<g>
	<path fill="#009B4F" d="M20.453,11.875c-2.381,0-3.969,1.553-4.763,4.66h8.3l-1.055,2.449h-7.619l-0.034,1.428h7.245l-1.055,2.449
		h-5.918c0.726,3.583,2.404,5.374,5.036,5.374c1.699,0,3.445-0.714,5.238-2.143l-0.035,5.137c-1.52,0.884-3.266,1.326-5.238,1.326
		c-2.857,0-5.159-0.918-6.905-2.755c-1.587-1.655-2.619-3.968-3.095-6.939H7.935l1.054-2.449h1.361v-0.884
		c0-0.317,0.011-0.499,0.034-0.544H7.9l1.055-2.449h1.734c0.544-2.744,1.667-4.91,3.368-6.497c1.791-1.723,4.036-2.585,6.735-2.585
		c1.904,0,3.969,0.567,6.191,1.701l-2.074,4.252C23.322,12.385,21.835,11.875,20.453,11.875z"/>
</g>
</svg>
