<?xml version="1.0" encoding="utf-8"?>
<!-- Generator: Adobe Illustrator 13.0.0, SVG Export Plug-In . SVG Version: 6.00 Build 14948)  -->
<!DOCTYPE svg PUBLIC "-//W3C//DTD SVG 1.1//EN" "http://www.w3.org/Graphics/SVG/1.1/DTD/svg11.dtd">
<svg version="1.1" id="Layer_11_copy" xmlns="http://www.w3.org/2000/svg" xmlns:xlink="http://www.w3.org/1999/xlink" x="0px"
	 y="0px" width="40.01px" height="40.008px" viewBox="0 0 40.01 40.008" enable-background="new 0 0 40.01 40.008"
	 xml:space="preserve">
<g>
	<g>
		
			<rect x="19.751" y="9.954" transform="matrix(-0.7071 -0.7072 0.7072 -0.7071 23.3769 49.6924)" fill="#009B4F" width="4.461" height="20.1"/>
		
			<rect x="12.245" y="18.532" transform="matrix(-0.7071 0.7071 -0.7071 -0.7071 41.3692 29.9786)" fill="#009B4F" width="4.461" height="10.051"/>
	</g>
	<g>
		<path fill="#009B4F" d="M20.004,0C8.974,0,0,8.974,0,20.003c0,11.032,8.974,20.005,20.004,20.005
			c11.031,0,20.006-8.973,20.006-20.005C40.01,8.974,31.036,0,20.004,0z M20.004,35.752c-8.684,0-15.749-7.063-15.749-15.749
			c0-8.683,7.064-15.747,15.749-15.747c8.684,0,15.75,7.064,15.75,15.747C35.754,28.689,28.688,35.752,20.004,35.752z"/>
	</g>
</g>
</svg>
