<?xml version="1.0" encoding="utf-8"?>
<!-- Generator: Adobe Illustrator 13.0.0, SVG Export Plug-In . SVG Version: 6.00 Build 14948)  -->
<!DOCTYPE svg PUBLIC "-//W3C//DTD SVG 1.1//EN" "http://www.w3.org/Graphics/SVG/1.1/DTD/svg11.dtd">
<svg version="1.1" id="Layer_9" xmlns="http://www.w3.org/2000/svg" xmlns:xlink="http://www.w3.org/1999/xlink" x="0px" y="0px"
	 width="39.494px" height="39.495px" viewBox="0 0 39.494 39.495" enable-background="new 0 0 39.494 39.495" xml:space="preserve">
<g>
	<path d="M19.747,0C8.858,0,0,8.858,0,19.747c0,10.889,8.858,19.748,19.747,19.748s19.747-8.858,19.747-19.748
		C39.494,8.858,30.636,0,19.747,0z M19.747,35.292c-8.572,0-15.546-6.973-15.546-15.545c0-8.572,6.974-15.545,15.546-15.545
		c8.571,0,15.546,6.974,15.546,15.545C35.293,28.32,28.318,35.292,19.747,35.292z"/>
	<path d="M30.038,19.138h-8.874V8.467c0-0.898-0.729-1.626-1.626-1.626s-1.626,0.728-1.626,1.626v12.297
		c0,0.897,0.729,1.625,1.626,1.625h10.5c0.898,0,1.626-0.728,1.626-1.625C31.664,19.865,30.937,19.138,30.038,19.138z"/>
</g>
</svg>
