<?xml version="1.0" encoding="utf-8"?>
<!-- Generator: Adobe Illustrator 13.0.0, SVG Export Plug-In . SVG Version: 6.00 Build 14948)  -->
<!DOCTYPE svg PUBLIC "-//W3C//DTD SVG 1.1//EN" "http://www.w3.org/Graphics/SVG/1.1/DTD/svg11.dtd">
<svg version="1.1" id="Layer_6" xmlns="http://www.w3.org/2000/svg" xmlns:xlink="http://www.w3.org/1999/xlink" x="0px" y="0px"
	 width="39.95px" height="38.25px" viewBox="0 0 39.95 38.25" enable-background="new 0 0 39.95 38.25" xml:space="preserve">
<g>
	<path d="M31.28,28.578c-5.237-1.911-6.912-3.521-6.912-6.969c0-2.069,1.6-1.395,2.303-5.186c0.29-1.571,1.703-0.026,1.975-3.614
		c0-1.432-0.771-1.788-0.771-1.788s0.392-2.116,0.545-3.746C28.609,5.246,27.246,0,19.976,0c-7.271,0-8.634,5.246-8.443,7.275
		c0.153,1.63,0.545,3.746,0.545,3.746s-0.771,0.356-0.771,1.788c0.271,3.588,1.682,2.043,1.975,3.614
		c0.703,3.791,2.303,3.116,2.303,5.186c0,3.448-1.675,5.058-6.912,6.969C3.415,30.491,0,32.444,0,33.774c0,1.331,0,4.476,0,4.476
		h19.976H39.95c0,0,0-3.145,0-4.476C39.95,32.444,36.536,30.491,31.28,28.578z"/>
</g>
</svg>
